<svg width="297" height="43" viewBox="0 0 297 43" fill="none" xmlns="http://www.w3.org/2000/svg">
<path fill-rule="evenodd" clip-rule="evenodd" d="M16.3852 20.6375C23.921 20.9141 28.4654 15.7846 32.6042 11.113L32.7624 10.9344C37.0673 6.0766 40.9876 1.76745 47.4673 2.11646C53.4249 2.43735 56.8123 6.46985 60.5185 10.9722L60.6273 11.1044C64.2125 15.4607 68.1368 20.229 75.0678 20.6364C82.7211 21.0862 87.2143 15.9152 91.3139 11.1971L91.3907 11.1088C95.6309 6.22939 99.4925 1.84481 106.035 2.11707C112.105 2.36965 116.036 6.73473 120.323 11.4956L120.467 11.6558C124.679 16.332 129.284 21.3666 136.593 21.0959C136.675 21.0929 136.755 21.0804 136.831 21.0596C143.651 20.5867 147.535 15.7576 151.084 11.3442L151.175 11.2319C154.885 6.6187 158.272 2.47881 164.222 2.12097C170.746 1.72852 174.72 6.15188 179.089 11.1471L179.253 11.3348C183.444 16.1286 188.051 21.3976 195.652 21.0739C202.759 20.7712 206.862 15.834 210.61 11.3244L210.738 11.1702C214.622 6.49687 218.173 2.32098 224.294 2.12231C230.715 1.91386 234.88 6.22938 237.511 10.8949C238.817 13.211 239.705 15.5512 240.267 17.3189C240.548 18.2007 240.745 18.9351 240.872 19.4461C240.935 19.7015 240.981 19.9008 241.011 20.0345C241.025 20.1013 241.036 20.1516 241.043 20.1844L241.05 20.2201L241.052 20.2277L241.052 20.2285L241.052 20.2289C241.164 20.7968 241.714 21.1667 242.282 21.0552C242.851 20.9437 243.221 20.3927 243.109 19.8246L242.08 20.0265C243.109 19.8246 243.109 19.8242 243.109 19.8237L243.109 19.8223L243.108 19.8182L243.105 19.8048L243.095 19.7574C243.087 19.7167 243.075 19.6581 243.058 19.5829C243.025 19.4325 242.975 19.2153 242.907 18.9409C242.771 18.3924 242.561 17.6142 242.265 16.6837C241.675 14.8268 240.735 12.3438 239.337 9.86506C236.561 4.94087 231.815 -0.219587 224.226 0.0267828C217.081 0.25872 212.969 5.20579 209.206 9.73255L209.125 9.82993C205.239 14.5056 201.686 18.7184 195.562 18.9792C189.022 19.2577 185.039 14.7656 180.667 9.76689L180.584 9.67112C176.368 4.85034 171.748 -0.432173 164.096 0.0281218C157.159 0.445371 153.234 5.32556 149.654 9.77766L149.541 9.91784C145.831 14.5299 142.445 18.6519 136.496 18.9798C136.433 18.9833 136.37 18.9925 136.31 19.0067C130.236 19.1374 126.3 14.9992 122.025 10.2527L121.653 9.83908C117.564 5.29224 113.085 0.312009 106.122 0.022256C98.5194 -0.294127 94.0372 4.86542 89.9612 9.55738L89.8081 9.73354C85.5711 14.6093 81.7183 18.927 75.1908 18.5434C69.2323 18.1932 65.8444 14.1433 62.1372 9.63972L62.051 9.53498C58.4586 5.17025 54.5301 0.397206 47.5801 0.0228668C39.9922 -0.385828 35.4351 4.75687 31.2718 9.45517L31.1932 9.54384C26.8851 14.4052 22.9564 18.7807 16.4621 18.5423C10.3762 18.3189 6.7967 14.1135 4.68911 9.69515C3.64096 7.49782 2.98861 5.30437 2.5986 3.65367C2.40409 2.83039 2.27604 2.1473 2.19699 1.67305C2.15749 1.43605 2.13028 1.25156 2.11317 1.12821C2.10461 1.06655 2.09858 1.0202 2.0948 0.990235L2.09079 0.957735L2.08999 0.950967L2.08995 0.950657L2.08989 0.950127C2.0239 0.375178 1.50445 -0.0375792 0.929404 0.0281265C0.354179 0.0938521 -0.0588524 0.613446 0.00687338 1.18867L1.04473 1.07008C0.0068735 1.18867 0.00692356 1.18911 0.00698174 1.18962L0.00713862 1.19098L0.00759912 1.19493L0.00911964 1.20773L0.0146518 1.25258C0.0194824 1.29088 0.0266478 1.34584 0.0364326 1.41636C0.0559993 1.55738 0.086059 1.76077 0.128897 2.01777C0.214531 2.53152 0.351465 3.26095 0.558152 4.13576C0.970547 5.88123 1.66546 8.2262 2.79675 10.5978C5.04805 15.3174 9.15617 20.3721 16.3852 20.6375Z" fill="black"/>
<path fill-rule="evenodd" clip-rule="evenodd" d="M69.3852 41.6375C76.921 41.9141 81.4654 36.7846 85.6042 32.113L85.7624 31.9344C90.0673 27.0766 93.9876 22.7675 100.467 23.1165C106.425 23.4374 109.812 27.4699 113.518 31.9722L113.627 32.1044C117.213 36.4607 121.137 41.229 128.068 41.6364C135.721 42.0862 140.214 36.9152 144.314 32.1972L144.391 32.1088C148.631 27.2294 152.492 22.8448 159.035 23.1171C165.105 23.3697 169.036 27.7347 173.323 32.4956L173.467 32.6558C177.679 37.332 182.284 42.3666 189.593 42.0959C189.675 42.0929 189.755 42.0804 189.831 42.0596C196.651 41.5867 200.535 36.7576 204.084 32.3442L204.175 32.232C207.885 27.6187 211.272 23.4788 217.222 23.121C223.746 22.7285 227.72 27.1519 232.089 32.1471L232.253 32.3348C236.444 37.1287 241.051 42.3976 248.652 42.0739C255.759 41.7712 259.862 36.834 263.61 32.3244L263.738 32.1702C267.622 27.4969 271.173 23.321 277.294 23.1223C283.715 22.9139 287.88 27.2294 290.511 31.8949C291.817 34.211 292.705 36.5512 293.267 38.3189C293.548 39.2007 293.745 39.9351 293.872 40.4461C293.935 40.7015 293.981 40.9008 294.011 41.0345C294.025 41.1013 294.036 41.1516 294.043 41.1844L294.05 41.2201L294.052 41.2278L294.052 41.2285L294.052 41.2289C294.164 41.7968 294.714 42.1667 295.282 42.0552C295.851 41.9437 296.221 41.3927 296.109 40.8246L295.08 41.0265C296.109 40.8246 296.109 40.8242 296.109 40.8237L296.109 40.8223L296.108 40.8182L296.105 40.8048L296.095 40.7574C296.087 40.7167 296.075 40.6581 296.058 40.5829C296.025 40.4325 295.975 40.2153 295.907 39.9409C295.771 39.3924 295.561 38.6142 295.265 37.6837C294.675 35.8268 293.735 33.3438 292.337 30.8651C289.561 25.9409 284.815 20.7804 277.226 21.0268C270.081 21.2587 265.969 26.2058 262.206 30.7326L262.125 30.8299C258.239 35.5057 254.686 39.7184 248.562 39.9792C242.022 40.2577 238.039 35.7656 233.667 30.7669L233.584 30.6711C229.368 25.8504 224.748 20.5678 217.096 21.0281C210.159 21.4454 206.234 26.3256 202.654 30.7777L202.541 30.9179C198.831 35.5299 195.445 39.6519 189.496 39.9798C189.433 39.9833 189.37 39.9925 189.31 40.0067C183.236 40.1374 179.3 35.9992 175.025 31.2527L174.653 30.8391C170.564 26.2922 166.085 21.312 159.122 21.0223C151.519 20.7059 147.037 25.8654 142.961 30.5574L142.808 30.7335C138.571 35.6093 134.718 39.927 128.191 39.5434C122.232 39.1932 118.844 35.1433 115.137 30.6397L115.051 30.535C111.459 26.1703 107.53 21.3972 100.58 21.0229C92.9922 20.6142 88.4351 25.7569 84.2718 30.4552L84.1932 30.5438C79.8851 35.4052 75.9564 39.7807 69.4621 39.5423C63.3762 39.3189 59.7967 35.1135 57.6891 30.6952C56.641 28.4978 55.9886 26.3044 55.5986 24.6537C55.4041 23.8304 55.276 23.1473 55.197 22.6731C55.1575 22.4361 55.1303 22.2516 55.1132 22.1282C55.1046 22.0666 55.0986 22.0202 55.0948 21.9902L55.0908 21.9577L55.09 21.951L55.0899 21.9507L55.0899 21.9501C55.0239 21.3752 54.5045 20.9624 53.9294 21.0281C53.3542 21.0939 52.9411 21.6135 53.0069 22.1887L54.0447 22.0701C53.0069 22.1887 53.0069 22.1891 53.007 22.1896L53.0071 22.191L53.0076 22.1949L53.0091 22.2077L53.0147 22.2526C53.0195 22.2909 53.0266 22.3458 53.0364 22.4164C53.056 22.5574 53.0861 22.7608 53.1289 23.0178C53.2145 23.5315 53.3515 24.261 53.5582 25.1358C53.9705 26.8812 54.6655 29.2262 55.7967 31.5978C58.0481 36.3174 62.1562 41.3721 69.3852 41.6375Z" fill="black"/>
</svg>
